<svg id="Diseño" xmlns="http://www.w3.org/2000/svg" viewBox="0 0 151.6 175.05"><title>logo panals</title><path d="M630.74,354.09h0L595.25,333.6l-35.49,20.49h0l-40.31,23.27v41h0v46.54l40.31,23.27h0l35.49,20.49,35.49-20.49h0L671,464.88V377.36Zm-28.31,106.6a40.06,40.06,0,0,0,13-4.66l.12-.07a6.79,6.79,0,0,1,10.4,5.68v12.62Zm-14.35-79.14a40.06,40.06,0,0,0-13,4.66l-.12.07a6.79,6.79,0,0,1-10.4-5.68V368Zm-8.16,66.13,0,0a7,7,0,0,1,0-12.13h0l10.52-6.07v24.22Zm30.68-53.13,0,0a7,7,0,0,1,0,12.13h0l-10.52,6.08V388.56Zm15.34,26.57v0a7,7,0,0,1-10.52,6h0l-10.52-6.08L615.4,415l10.45-6Zm-61.35,0v-.35a6.84,6.84,0,0,1,10.25-5.88l10.79,6.23L575.1,427.2l-10.45,6Zm25.86-8.34-21-12.11,10.45-6.12,0,0a7,7,0,0,1,10.49,6.1Zm9.63,16.68,10.52,6.08,10.45,6-10.45,6.12,0,0a7,7,0,0,1-10.49-6.1Zm15.34-43.25-.12-.07A6.79,6.79,0,0,1,615,374.3L625.92,368v27.13A40,40,0,0,0,615.4,386.21Zm-58,21.34a40,40,0,0,0-2.45,13.57v.14a6.79,6.79,0,0,1-10.12,6.17l-10.93-6.31Zm7.18,39.57A40,40,0,0,0,575.1,456l.12.07a6.79,6.79,0,0,1,.28,11.85l-10.93,6.31Zm68.53-12.43a40,40,0,0,0,2.45-13.57V421a6.79,6.79,0,0,1,10.12-6.17l10.93,6.31Zm-37.85-90,25.86,14.93-25.86,14.93-25.86-14.93Zm-66.17,38.2L554.94,368v29.86l-25.86,14.93Zm0,46.54,25.87,14.93v29.87l-25.87-14.93Zm66.17,68.07-25.86-14.93,25.86-14.93,25.86,14.93Zm66.17-38.2-25.86,14.93V444.39l25.86-14.93Zm-25.86-61.47V368l25.86,14.93v29.86Z" transform="translate(-519.45 -333.6)" style="fill:#efa932"/></svg>